<mxfile host="app.diagrams.net" modified="2022-05-01T18:37:45.200Z" agent="5.0 (Windows NT 10.0; Win64; x64) AppleWebKit/537.36 (KHTML, like Gecko) Chrome/101.0.4951.41 Safari/537.36" etag="SJu9rnaMuQGhZ1TvnwwW" version="17.5.0" type="github">
  <diagram id="wurKgi8br9V9tv3kZPat" name="Page-1">
    <mxGraphModel dx="1038" dy="560" grid="1" gridSize="10" guides="1" tooltips="1" connect="1" arrows="1" fold="1" page="1" pageScale="1" pageWidth="850" pageHeight="1100" math="0" shadow="0">
      <root>
        <mxCell id="0" />
        <mxCell id="1" parent="0" />
        <mxCell id="BrATncubqIpVO5ocK9Gx-17" style="edgeStyle=orthogonalEdgeStyle;rounded=0;orthogonalLoop=1;jettySize=auto;html=1;entryX=0.5;entryY=0;entryDx=0;entryDy=0;" edge="1" parent="1" source="BrATncubqIpVO5ocK9Gx-1" target="BrATncubqIpVO5ocK9Gx-4">
          <mxGeometry relative="1" as="geometry" />
        </mxCell>
        <mxCell id="BrATncubqIpVO5ocK9Gx-18" style="edgeStyle=orthogonalEdgeStyle;rounded=0;orthogonalLoop=1;jettySize=auto;html=1;entryX=0.5;entryY=0;entryDx=0;entryDy=0;" edge="1" parent="1" source="BrATncubqIpVO5ocK9Gx-1" target="BrATncubqIpVO5ocK9Gx-6">
          <mxGeometry relative="1" as="geometry" />
        </mxCell>
        <mxCell id="BrATncubqIpVO5ocK9Gx-20" style="edgeStyle=orthogonalEdgeStyle;rounded=0;orthogonalLoop=1;jettySize=auto;html=1;" edge="1" parent="1" source="BrATncubqIpVO5ocK9Gx-1" target="BrATncubqIpVO5ocK9Gx-8">
          <mxGeometry relative="1" as="geometry" />
        </mxCell>
        <mxCell id="BrATncubqIpVO5ocK9Gx-21" style="edgeStyle=orthogonalEdgeStyle;rounded=0;orthogonalLoop=1;jettySize=auto;html=1;entryX=0.338;entryY=-0.103;entryDx=0;entryDy=0;entryPerimeter=0;" edge="1" parent="1" source="BrATncubqIpVO5ocK9Gx-1" target="BrATncubqIpVO5ocK9Gx-10">
          <mxGeometry relative="1" as="geometry" />
        </mxCell>
        <mxCell id="BrATncubqIpVO5ocK9Gx-22" style="edgeStyle=orthogonalEdgeStyle;rounded=0;orthogonalLoop=1;jettySize=auto;html=1;entryX=0.5;entryY=0;entryDx=0;entryDy=0;" edge="1" parent="1" source="BrATncubqIpVO5ocK9Gx-1" target="BrATncubqIpVO5ocK9Gx-13">
          <mxGeometry relative="1" as="geometry" />
        </mxCell>
        <mxCell id="BrATncubqIpVO5ocK9Gx-23" style="edgeStyle=orthogonalEdgeStyle;rounded=0;orthogonalLoop=1;jettySize=auto;html=1;entryX=0.5;entryY=0;entryDx=0;entryDy=0;" edge="1" parent="1" source="BrATncubqIpVO5ocK9Gx-1" target="BrATncubqIpVO5ocK9Gx-15">
          <mxGeometry relative="1" as="geometry" />
        </mxCell>
        <mxCell id="BrATncubqIpVO5ocK9Gx-24" style="edgeStyle=orthogonalEdgeStyle;rounded=0;orthogonalLoop=1;jettySize=auto;html=1;entryX=0.404;entryY=0.01;entryDx=0;entryDy=0;entryPerimeter=0;" edge="1" parent="1" source="BrATncubqIpVO5ocK9Gx-1" target="BrATncubqIpVO5ocK9Gx-16">
          <mxGeometry relative="1" as="geometry" />
        </mxCell>
        <mxCell id="BrATncubqIpVO5ocK9Gx-1" value="Assets" style="whiteSpace=wrap;html=1;" vertex="1" parent="1">
          <mxGeometry x="350" y="170" width="120" height="30" as="geometry" />
        </mxCell>
        <mxCell id="BrATncubqIpVO5ocK9Gx-4" value="Editor" style="whiteSpace=wrap;html=1;" vertex="1" parent="1">
          <mxGeometry x="30" y="270" width="90" height="30" as="geometry" />
        </mxCell>
        <mxCell id="BrATncubqIpVO5ocK9Gx-6" value="Input System" style="whiteSpace=wrap;html=1;" vertex="1" parent="1">
          <mxGeometry x="150" y="265" width="90" height="35" as="geometry" />
        </mxCell>
        <mxCell id="BrATncubqIpVO5ocK9Gx-8" value="Material" style="whiteSpace=wrap;html=1;" vertex="1" parent="1">
          <mxGeometry x="270" y="265" width="90" height="30" as="geometry" />
        </mxCell>
        <mxCell id="BrATncubqIpVO5ocK9Gx-10" value="Prefabs" style="whiteSpace=wrap;html=1;" vertex="1" parent="1">
          <mxGeometry x="380" y="260" width="90" height="35" as="geometry" />
        </mxCell>
        <mxCell id="BrATncubqIpVO5ocK9Gx-13" value="Scene" style="whiteSpace=wrap;html=1;" vertex="1" parent="1">
          <mxGeometry x="490" y="260" width="90" height="30" as="geometry" />
        </mxCell>
        <mxCell id="BrATncubqIpVO5ocK9Gx-15" value="Scripts" style="whiteSpace=wrap;html=1;" vertex="1" parent="1">
          <mxGeometry x="610" y="260" width="90" height="35" as="geometry" />
        </mxCell>
        <mxCell id="BrATncubqIpVO5ocK9Gx-16" value="Settings" style="whiteSpace=wrap;html=1;" vertex="1" parent="1">
          <mxGeometry x="730" y="260" width="90" height="40" as="geometry" />
        </mxCell>
      </root>
    </mxGraphModel>
  </diagram>
</mxfile>
